<svg width="143" height="87" viewBox="0 0 143 87" fill="none" xmlns="http://www.w3.org/2000/svg">
    <path d="M40.852 16.018C41.291 16.018 41.808 15.821 42.366 15.467C43.48 14.758 44.038 13.814 44.038 12.672C44.038 10.98 43.082 10.744 42.485 10.744C41.928 10.744 41.171 10.941 40.733 11.964C40.454 12.634 40.216 13.302 40.096 13.971C39.976 14.522 39.817 14.641 39.817 14.641H39.26L39.499 15.309C39.619 15.585 39.937 16.018 40.852 16.018Z" fill="#C8A851" />
    <path d="M39.14 41.323C40.016 41.323 41.012 40.773 42.166 39.592C43.2513 38.469 44.2248 37.2433 45.073 35.932C45.79 34.83 46.546 33.531 47.303 32.153C47.183 32.823 47.103 33.492 46.984 34.239L46.069 40.064C45.113 40.851 43.959 42.071 42.724 43.764C39.897 47.502 37.946 51.162 36.911 54.625C36.552 55.885 36.353 56.947 36.353 57.813C36.353 59.899 37.428 61.001 39.459 61.001C42.405 61.001 44.794 57.734 46.825 51.044C48.099 46.99 49.612 39.394 51.405 28.454C52.638 28.336 53.873 28.021 55.107 27.549L55.346 27.47L55.426 25.542L54.828 25.817C53.793 26.289 52.758 26.565 51.683 26.683C52.161 23.81 52.519 21.527 52.798 19.953L53.674 19.756H53.714C56.421 18.93 58.77 16.726 60.682 13.184C62.234 10.272 63.031 7.517 63.031 4.959C63.03 0.866 61.08 0 59.487 0C58.253 0 57.098 0.551 56.023 1.653C55.028 2.716 54.151 4.053 53.435 5.628C51.683 9.367 49.971 16.175 48.418 25.778L47.94 26.762H47.104C46.944 26.762 46.467 26.84 46.467 27.628C46.467 28.415 46.905 28.493 47.104 28.493L46.785 29.163C45.67 31.406 44.317 33.688 42.764 35.971C40.813 38.805 39.857 39.237 39.419 39.237C39.22 39.237 38.663 39.237 38.663 37.506C38.663 36.128 38.862 34.515 39.22 32.744C39.42 31.602 39.618 30.697 39.778 29.989C39.937 29.241 40.176 28.257 40.494 27.077C40.773 25.896 41.012 24.991 41.131 24.361C41.251 23.731 41.331 23.101 41.331 22.511C41.331 21.921 41.251 21.409 41.131 20.977C40.733 19.677 39.977 19.402 39.459 19.402C39.021 19.402 38.424 19.638 38.185 20.74C38.065 21.173 37.985 21.606 37.866 22.078C37.786 22.511 37.667 22.905 37.587 23.22C37.507 23.495 37.388 23.928 37.269 24.519C35.756 29.831 35.039 33.767 35.039 36.168C35.039 40.418 37.269 41.323 39.14 41.323ZM42.724 54.586C41.729 57.42 40.534 58.876 39.18 58.876C39.021 58.876 38.464 58.876 38.464 57.42C38.464 56.239 39.34 53.838 41.052 50.296C42.485 47.306 43.998 44.866 45.512 43.055C44.635 47.935 43.719 51.831 42.724 54.586ZM56.142 6.021C57.138 3.306 58.332 1.928 59.646 1.928C60.443 1.928 60.841 2.873 60.841 4.762C60.841 6.848 60.084 9.327 58.611 12.122C57.018 15.192 55.187 17.12 53.156 17.789C54.112 12.712 55.107 8.737 56.142 6.021Z" fill="#C8A851" />
    <path d="M56.78 26.762C55.824 28.966 55.346 30.894 55.346 32.429C55.346 33.964 55.506 35.263 55.824 36.286C56.819 39.592 59.169 41.284 62.832 41.284C64.146 41.284 65.539 40.694 66.972 39.592C68.366 38.49 69.601 37.27 70.596 35.932C71.3407 34.9378 72.0447 33.9136 72.706 32.862C72.428 34.16 72.229 35.184 72.069 35.892C71.791 37.152 71.671 37.978 71.671 38.45C71.671 38.962 71.751 39.434 71.95 39.867C72.388 40.969 73.144 41.205 73.662 41.205C74.219 41.205 74.657 40.772 74.896 39.945C75.733 37.23 77.006 33.845 78.639 29.871C79.635 27.391 80.709 25.345 81.864 23.771C82.939 22.275 83.934 21.488 84.731 21.488C85.01 21.488 85.567 21.488 85.567 22.668C85.567 23.692 85.09 26.014 84.094 29.635C83.099 33.295 82.621 36.089 82.621 37.978C82.621 42.032 84.413 42.898 85.926 42.898C86.403 42.898 86.841 42.74 87.24 42.464C87.638 42.15 87.837 41.834 87.837 41.441V41.048H87.439C86.921 41.048 86.642 40.025 86.642 38.214C86.642 36.797 87.08 34.239 87.917 30.579C88.793 26.84 89.231 24.439 89.231 23.338C89.231 22.158 88.912 21.213 88.235 20.504C87.558 19.796 86.642 19.442 85.528 19.442C82.7 19.442 80.033 22.078 77.325 27.47C77.763 25.07 78.241 22.472 78.759 19.678C80.152 18.969 81.586 17.474 83.099 15.073C85.249 11.689 86.603 8.383 87.12 5.195C87.24 4.525 87.28 3.935 87.28 3.385C87.28 0.59 85.846 0 84.611 0C82.819 0 81.226 1.496 79.873 4.487C79.1871 5.97239 78.5887 7.49666 78.081 9.052C77.563 10.626 77.006 12.633 76.448 15.192C75.851 17.867 75.333 20.072 74.935 21.921C74.696 23.101 74.378 24.479 74.059 26.053L73.542 27.116C72.705 29.005 71.192 31.484 69.082 34.476C68.126 35.774 67.092 36.876 65.936 37.781C64.822 38.647 63.786 39.119 62.791 39.119C60.322 39.119 59.128 37.349 59.128 33.728C59.128 31.091 59.844 28.336 61.198 25.542C62.552 22.826 64.025 21.449 65.578 21.449C65.976 21.449 66.374 21.567 66.374 22.433C66.374 23.298 66.175 24.164 65.737 25.069C65.299 26.014 65.06 26.211 64.981 26.25H64.503L64.703 26.762C64.941 27.47 65.419 27.549 65.698 27.549C66.454 27.549 67.131 27.234 67.728 26.683C68.286 26.132 68.684 25.463 68.843 24.755C69.003 24.046 69.122 23.298 69.122 22.511C69.122 21.645 68.763 20.858 68.047 20.15C67.45 19.599 66.613 19.284 65.578 19.284C64.623 19.284 63.627 19.52 62.632 19.954C60.123 21.174 58.172 23.456 56.778 26.762H56.78ZM84.73 1.928C85.128 2.125 85.328 2.637 85.328 3.463C85.328 5.588 84.372 8.501 82.5 12.161C81.386 14.286 80.31 15.861 79.315 16.884C81.823 4.211 83.775 2.046 84.73 1.928Z" fill="#C8A851" />
    <path d="M94.725 41.245C97.075 41.245 99.822 38.45 103.047 32.705C102.908 33.6693 102.842 34.6427 102.848 35.617C102.848 39.434 104.242 41.363 106.949 41.363C107.825 41.363 108.821 40.812 109.975 39.631C111.06 38.508 112.034 37.2823 112.882 35.971C113.503 35.0094 114.087 34.0247 114.634 33.019C114.475 34.279 114.355 35.341 114.355 36.168C114.355 40.418 116.585 41.323 118.456 41.323C119.332 41.323 120.328 40.773 121.483 39.592C122.568 38.469 123.541 37.2432 124.389 35.932C125.026 34.948 125.663 33.846 126.34 32.665C125.743 36.207 125.424 38.215 125.424 38.647C125.424 40.733 126.42 41.166 127.216 41.166C127.654 41.166 128.252 40.93 128.49 39.749C128.65 39.041 129.207 37.269 130.242 34.475C131.238 31.681 132.592 28.69 134.264 25.62C136.255 21.96 137.529 21.173 138.246 21.173C138.684 21.173 139.082 21.331 139.082 22.353C139.082 23.377 138.564 25.738 137.569 29.438C136.534 33.216 136.016 36.05 136.016 37.938C136.016 41.992 137.808 42.858 139.321 42.858C139.799 42.858 140.237 42.701 140.635 42.425C141.033 42.11 141.232 41.795 141.232 41.402V41.008H140.834C140.316 41.008 140.037 39.985 140.037 38.175C140.037 36.758 140.475 34.161 141.391 30.501C142.307 26.722 142.745 24.282 142.745 23.141C142.745 21.921 142.426 20.937 141.789 20.229C141.152 19.481 140.197 19.127 139.042 19.127C136.374 19.127 133.706 21.882 130.919 27.51L131.278 25.66C131.397 24.99 131.477 24.4 131.477 23.81C131.477 23.22 131.397 22.669 131.198 22.157C130.76 20.858 130.003 20.622 129.486 20.622C129.088 20.622 128.371 20.819 128.172 22C127.893 23.456 127.654 24.833 127.415 26.132L125.902 29.202C124.787 31.445 123.434 33.728 121.881 36.01C119.93 38.844 118.974 39.277 118.536 39.277C118.337 39.277 117.78 39.277 117.78 37.545C117.78 36.168 117.979 34.555 118.337 32.783C118.536 31.642 118.735 30.737 118.894 30.028C119.054 29.281 119.293 28.297 119.611 27.116C119.89 25.936 120.129 25.03 120.248 24.4C120.368 23.77 120.447 23.141 120.447 22.55C120.447 21.96 120.368 21.449 120.248 21.016C119.85 19.717 119.094 19.442 118.576 19.442C118.138 19.442 117.541 19.678 117.302 20.78C117.182 21.213 117.103 21.645 116.983 22.118C116.904 22.59 116.784 22.944 116.704 23.259C116.625 23.535 116.505 23.968 116.386 24.558C116.266 25.03 116.147 25.542 116.028 25.975L114.395 29.202C113.28 31.445 111.926 33.728 110.374 36.01C108.423 38.844 107.467 39.277 107.029 39.277C106.392 39.277 106.272 38.214 106.272 37.309C106.272 36.955 106.312 36.364 106.392 35.577C106.471 34.751 107.069 31.681 108.184 26.447C108.303 25.857 108.343 25.345 108.343 24.873C108.343 22.826 107.427 22.393 106.71 22.393C105.834 22.393 105.317 23.535 105.038 24.4C104.64 25.542 103.326 28.14 101.096 32.114C100.061 34.004 98.946 35.656 97.751 37.073C96.318 38.726 95.442 39.08 94.964 39.08C94.248 39.08 94.088 37.742 94.088 36.6C94.088 33.57 94.885 30.304 96.478 26.92C98.11 23.338 99.902 21.567 101.813 21.567C102.33 21.567 102.689 21.645 102.928 21.842C103.246 22.078 103.246 22.275 103.246 22.354C103.246 22.866 103.565 23.18 104.082 23.22C104.361 23.22 104.56 23.18 104.759 23.023C104.879 22.905 104.998 22.747 104.998 22.433C104.998 21.685 104.68 20.977 104.082 20.386C103.485 19.796 102.649 19.481 101.614 19.481C100.658 19.481 99.663 19.678 98.707 20.071C96.039 21.213 93.849 23.731 92.137 27.471C90.903 30.225 90.306 32.783 90.306 35.105C90.386 39.119 91.858 41.245 94.725 41.245Z" fill="#C8A851" />
    <path d="M120.208 16.018C120.646 16.018 121.164 15.821 121.721 15.467C122.836 14.758 123.394 13.814 123.394 12.672C123.394 10.98 122.438 10.744 121.841 10.744C121.283 10.744 120.527 10.941 120.089 11.964C119.81 12.634 119.571 13.302 119.452 13.971C119.332 14.522 119.173 14.641 119.173 14.641H118.656L118.894 15.309C118.974 15.585 119.293 16.018 120.208 16.018Z" fill="#C8A851" />
    <path d="M36.353 74.5C31.336 71.43 25.085 72.453 19.63 70.918C13.657 69.266 8.999 65.015 5.017 60.489C4.977 60.45 4.897 60.489 4.937 60.569C8.72 66.039 14.215 70.604 20.864 72.02C24.527 72.808 28.35 72.69 31.974 73.673C33.964 74.185 35.955 75.051 37.428 76.468C37.707 76.743 38.344 77.294 38.384 77.766C38.424 78.593 37.468 79.419 36.712 79.459C36.074 79.498 35.198 79.104 35.039 78.475C34.88 77.805 35.875 77.058 36.473 77.491C36.791 77.727 37.11 77.215 36.871 76.94C34.96 75.05 32.331 79.38 35.796 80.325C37.189 80.718 39.101 80.01 39.419 78.435C39.698 76.743 37.627 75.287 36.353 74.5Z" fill="#C8A851" />
    <path d="M141.033 55.373C139.321 53.838 136.175 53.878 135.339 56.357C134.622 58.443 136.772 60.607 138.723 59.663C139.321 59.387 138.923 58.443 138.285 58.679C136.812 59.23 135.857 56.908 136.971 56.003C137.728 55.373 138.763 55.373 139.599 55.845C140.913 56.593 142.028 58.482 141.75 60.056C141.232 62.851 136.454 64.306 134.184 64.858C128.849 66.196 123.115 65.408 117.819 63.874C107.467 60.883 97.791 55.688 86.762 56.908C83.975 57.223 80.829 57.852 77.882 58.915C76.967 59.112 75.972 59.387 74.976 59.702C73.5493 60.1567 72.1415 60.6688 70.756 61.237C69.282 61.827 67.809 62.497 66.296 63.205C63.27 64.582 60.124 66.078 56.939 67.415C53.753 68.715 50.529 69.855 47.422 70.525C45.9737 70.8282 44.5121 71.0644 43.042 71.233C42.326 71.194 41.649 71.115 40.932 71.115C40.335 71.076 39.778 71.076 39.18 71.037C38.145 70.682 37.03 70.367 35.875 70.053C34.4484 69.6844 33.0148 69.3433 31.575 69.03C28.629 68.36 25.523 67.73 22.497 66.904C19.471 66.117 16.524 65.134 13.937 63.914C12.6121 63.3152 11.3342 62.6175 10.114 61.827C10.154 61.788 10.194 61.788 10.233 61.749C12.702 62.89 15.449 63.519 18.157 63.519C21.462 63.519 24.647 62.575 27.912 62.182C29.704 61.985 32.491 61.552 33.885 62.929C35.039 64.071 34.203 65.487 32.81 65.881C32.292 65.999 31.814 66.038 31.257 65.921C30.659 65.921 30.221 65.606 30.022 64.976C30.381 64.661 30.779 64.346 31.137 64.031C31.655 64.228 32.013 63.559 31.575 63.284C31.3182 63.1189 31.0212 63.0269 30.7159 63.0179C30.4107 63.0089 30.1088 63.0832 29.8427 63.2329C29.5766 63.3827 29.3563 63.6021 29.2055 63.8676C29.0548 64.1331 28.9792 64.4347 28.987 64.74C28.987 66.353 30.659 67.14 32.093 67.101C33.646 67.061 35.517 66.275 35.636 64.504C35.756 62.851 34.362 61.591 32.849 61.198C30.659 60.608 28.111 61.08 25.921 61.513C23.174 62.024 20.426 62.693 17.599 62.653C16.962 62.653 16.365 62.575 15.768 62.536C17.201 62.418 18.634 62.103 19.63 61.394C22.656 61.67 26 61.119 27.872 58.522C28.032 58.285 27.832 58.01 27.633 57.971C25.523 57.341 23.173 57.656 21.343 58.955C20.665 59.427 20.187 60.017 19.63 60.529C19.47 60.529 19.311 60.529 19.152 60.569C18.834 60.569 18.714 60.962 18.834 61.159C18.554 61.316 18.276 61.473 17.918 61.591C16.723 61.946 15.449 62.142 14.215 62.261C12.9236 61.9838 11.6679 61.5608 10.472 61C10.4692 60.8903 10.4418 60.7827 10.392 60.685C11.826 60.764 13.339 60.449 14.692 60.095C17.48 59.425 20.028 58.048 21.302 55.412C21.422 55.215 21.382 54.861 21.103 54.742C18.555 53.719 15.768 53.444 13.1 54.192C11.866 54.546 10.472 55.057 9.556 55.962C9.158 56.356 8.999 56.75 8.72 57.182C8.003 58.245 7.087 58.521 6.172 58.284C5.50649 57.7389 4.86837 57.1612 4.26 56.553C3.13022 54.6187 2.53907 52.4171 2.548 50.177C2.548 47.895 2.788 45.769 3.225 43.92C5.495 46.517 8.72 47.816 12.821 47.816C15.887 47.816 18.595 47.265 20.904 46.202C23.214 45.1 25.084 43.605 26.439 41.676C27.768 39.7292 28.7636 37.5748 29.385 35.301C30.0256 32.9405 30.3471 30.5049 30.341 28.059C30.341 25.619 29.823 20.976 28.828 14.246C30.818 12.396 32.332 10.664 33.367 9.129C34.442 7.477 34.999 5.824 34.96 4.131C34.88 2.951 34.522 2.006 33.924 1.219C33.287 0.433 32.371 0.04 31.257 0.04C27.195 0 25.085 3.817 25.085 11.413C25.085 12.476 25.165 13.578 25.284 14.68L19.112 19.756C17.639 18.497 15.688 17.867 13.339 17.867C11.587 17.867 9.875 18.261 8.322 19.009C6.79618 19.7452 5.44014 20.7907 4.34 22.079C3.265 23.338 2.27 25.03 1.354 27.077C0.438 29.162 0 31.524 0 34.16C0 36.915 0.557 39.356 1.633 41.441C0.796 43.921 0.358 46.715 0.358 49.667C0.358 52.737 1.234 55.57 2.986 58.089C3.584 58.994 4.3 59.702 5.017 60.293C7.565 63.638 11.627 66.353 15.17 68.163C21.422 71.313 28.15 71.706 34.92 71.942L35.398 72.06C36.711 72.453 37.946 72.847 39.101 73.28C41.371 74.146 43.161 75.169 44.356 76.035C44.675 76.232 44.914 76.468 45.193 76.665C45.432 76.861 45.631 77.019 45.83 77.176C45.989 77.333 46.148 77.452 46.268 77.57C46.388 77.688 46.467 77.766 46.507 77.845C47.383 78.75 48.139 79.616 48.737 80.285L48.975 80.521C49.015 80.561 49.055 80.6 49.095 80.6C49.135 80.6 49.135 80.6 49.175 80.64H49.254C49.214 80.718 49.214 80.836 49.214 80.915C49.214 80.993 49.254 81.033 49.294 81.112C49.334 81.19 49.493 81.308 49.732 81.269C49.852 81.269 49.931 81.229 49.971 81.19C50.011 81.151 50.051 81.151 50.13 81.112C50.219 81.023 50.2873 80.9154 50.33 80.797C50.409 80.561 50.409 80.403 50.409 80.246C50.409 80.167 50.369 80.088 50.369 80.01C50.369 79.97 50.329 79.892 50.329 79.852C50.289 79.734 50.289 79.616 50.249 79.498C50.01 78.514 49.294 77.294 48.259 76.231C48.1573 76.1341 48.0636 76.0291 47.979 75.917C47.86 75.799 47.661 75.641 47.462 75.444C47.2395 75.2281 46.9997 75.0307 46.745 74.854C46.665 74.775 46.586 74.736 46.507 74.657C48.3236 74.8081 50.1505 74.782 51.962 74.579C52.877 75.169 53.872 75.838 54.55 76.664C54.868 76.94 55.067 77.294 55.187 77.727C54.868 78.278 54.55 78.868 54.191 79.419C53.275 78.829 53.037 78.278 53.435 77.688C53.515 77.53 53.595 77.412 53.714 77.255C53.873 77.019 53.594 76.743 53.355 76.822C51.962 77.215 51.842 79.222 52.957 80.049C54.271 81.033 56.023 80.089 56.222 78.553C56.461 76.703 54.749 75.366 53.236 74.421C54.8727 75.0462 56.4349 75.8511 57.894 76.821C59.646 78.002 63.27 80.718 62.832 83.197C62.592 84.575 61.08 85.795 59.726 85.952C58.89 86.07 57.974 85.756 57.536 84.968C56.899 83.866 58.372 82.292 59.487 83.198C59.925 83.591 60.562 82.961 60.164 82.528C58.81 81.151 56.302 82.214 56.302 84.142C56.262 86.464 58.93 87.487 60.841 86.779C62.712 86.07 64.424 83.985 63.907 81.939C63.31 79.577 60.801 77.452 58.93 76.114C57.7503 75.2919 56.4973 74.5802 55.187 73.988C56.1335 73.7593 57.0644 73.4704 57.974 73.123C61.836 71.627 65.26 69.226 69.203 67.927C71.353 67.219 73.702 66.787 75.932 67.219C76.37 67.298 77.285 67.416 77.604 67.809C78.161 68.557 77.803 69.856 77.086 70.368C76.529 70.801 75.494 70.958 74.936 70.446C74.379 69.935 74.856 68.676 75.653 68.676C76.091 68.676 76.091 68.006 75.693 67.927C72.746 67.337 73.025 72.926 76.768 71.706C78.281 71.233 79.635 69.423 78.918 67.809C78.161 65.959 75.334 65.881 73.662 65.959C67.172 66.156 62.035 70.839 56.062 72.769C55.306 73.004 54.55 73.201 53.753 73.359C51.9703 72.6868 50.1319 72.1732 48.259 71.824C51.404 71.273 54.629 70.249 57.775 69.069C61.08 67.849 64.265 66.432 67.331 65.133C68.645 64.583 69.919 64.071 71.114 63.559C70.994 63.638 70.914 63.717 70.914 63.756C70.954 63.796 71.154 63.756 71.512 63.598C71.751 63.52 71.99 63.441 72.189 63.323C72.507 63.205 72.826 63.126 73.144 63.008C75.08 62.36 77.0842 61.9373 79.117 61.748C81.625 61.513 84.572 61.631 87.717 62.182C90.823 62.732 94.128 63.717 97.353 64.936C100.578 66.156 103.804 67.573 106.87 68.872C108.422 69.542 109.896 70.132 111.409 70.722C112.822 71.2534 114.257 71.7261 115.709 72.139C118.456 72.886 120.925 73.201 122.836 73.201C123.314 73.201 123.752 73.161 124.15 73.161C124.548 73.161 124.907 73.083 125.186 73.044C125.504 73.004 125.743 72.965 125.942 72.926C126.104 72.896 126.263 72.8566 126.42 72.808C128.052 72.453 129.486 71.706 130.322 70.958C130.441 70.879 130.521 70.761 130.641 70.682C130.686 70.6331 130.74 70.5931 130.8 70.564L130.999 70.368C131.118 70.21 131.238 70.053 131.317 69.778C131.357 69.6361 131.357 69.4859 131.317 69.344C131.317 69.266 131.278 69.226 131.238 69.147C131.197 69.0503 131.127 68.9682 131.039 68.911C130.879 68.754 130.641 68.754 130.561 68.793C130.441 68.833 130.402 68.873 130.362 68.951C130.282 69.03 130.242 69.148 130.203 69.266L130.123 69.186H130.043C130.003 69.186 129.924 69.186 129.884 69.226C129.765 69.266 129.645 69.266 129.526 69.305C128.57 69.58 127.336 69.895 125.942 70.21C125.862 70.25 125.743 70.25 125.544 70.289C125.385 70.329 125.146 70.368 124.907 70.407C124.668 70.447 124.349 70.486 123.991 70.525C123.608 70.5736 123.222 70.6 122.836 70.604C121.164 70.644 118.894 70.446 116.306 69.777C114.992 69.462 113.639 69.029 112.205 68.557C110.693 68.025 109.193 67.4609 107.706 66.865C104.6 65.645 101.335 64.346 97.99 63.205C95.6158 62.3955 93.1964 61.7254 90.744 61.198V61.119C90.664 60.883 90.544 60.725 90.425 60.569L90.226 60.371C90.1803 60.3222 90.1261 60.2822 90.066 60.253C89.987 60.175 89.868 60.096 89.748 60.017C88.872 59.348 87.438 58.718 85.766 58.482C85.647 58.482 85.488 58.442 85.289 58.404C85.089 58.364 84.811 58.364 84.532 58.324C84.333 58.324 84.054 58.285 83.815 58.285C86.881 57.695 90.027 57.498 93.133 57.774C100.698 58.404 107.666 61.749 114.793 64.11C121.283 66.275 128.371 67.73 135.06 65.92C137.529 65.251 140.953 63.992 142.466 61.71C143.661 59.82 142.705 56.869 141.033 55.373ZM21.063 59.938C21.7072 59.3842 22.4502 58.957 23.253 58.679C24.448 58.246 25.683 58.246 26.916 58.522C25.204 60.332 22.895 60.411 20.546 60.489C20.705 60.293 20.864 60.095 21.063 59.938ZM31.336 2.125C31.973 2.125 32.849 2.361 32.849 4.29C32.849 6.258 31.416 8.698 28.589 11.57C28.4871 10.6685 28.4337 9.76221 28.429 8.855C28.429 4.408 29.385 2.125 31.336 2.125ZM49.493 80.6C49.493 80.64 49.493 80.64 49.493 80.6ZM20.227 55.413C19.112 57.341 17.161 58.364 15.011 58.955C13.14 59.427 10.591 60.056 8.76 59.151C11.547 57.971 14.374 57.144 17.28 56.239C17.759 56.082 17.56 55.452 17.082 55.531C14.533 55.964 11.985 56.829 9.516 57.774C11.507 54.271 16.683 54.114 20.227 55.413ZM18.834 25.069C18.834 27.273 17.997 29.281 16.325 31.052C15.21 32.272 13.975 32.902 12.662 32.902H12.184L12.264 33.373C12.344 33.806 12.503 34.161 12.781 34.397C13.021 34.633 13.379 34.751 13.817 34.751C15.4407 34.7625 17.0225 34.2365 18.316 33.255C19.59 32.272 20.506 31.13 20.984 29.831C21.501 28.572 21.74 27.077 21.74 25.463C21.74 23.928 21.302 22.551 20.466 21.291L25.483 17.159C26.041 22.905 26.319 26.369 26.319 27.549C26.319 32.429 25.284 36.679 23.214 40.103C22.1838 41.8364 20.6961 43.2525 18.914 44.196C17.082 45.18 14.931 45.692 12.503 45.692C8.601 45.692 5.813 44.314 3.982 41.481C5.176 38.057 7.008 34.83 9.516 31.878C11.946 29.005 14.971 26.014 18.515 22.984C18.754 23.653 18.834 24.361 18.834 25.069ZM2.867 29.36C4.061 25.582 6.012 22.827 8.68 21.253C10.114 20.387 11.746 19.954 13.538 19.954C15.131 19.954 16.405 20.387 17.36 21.214C10.074 27.39 5.136 33.216 2.708 38.647C2.309 37.309 2.11 35.892 2.11 34.357C2.11 32.626 2.35 30.973 2.867 29.359V29.36ZM11.427 65.016C9.954 63.993 8.68 62.812 7.446 61.592C7.685 61.671 7.924 61.71 8.163 61.789C9.636 62.969 11.428 64.111 13.379 65.134C16.007 66.512 19.033 67.614 22.059 68.519C25.005 69.385 27.952 70.132 30.779 70.841C27.355 70.683 23.97 70.329 20.665 69.385C17.3751 68.4244 14.2576 66.9498 11.428 65.016H11.427ZM45.193 73.792C44.4336 73.3174 43.6491 72.8841 42.843 72.494C43.321 72.494 43.839 72.454 44.317 72.415C44.834 72.455 45.312 72.533 45.83 72.612C45.83 72.69 45.91 72.73 45.989 72.73C46.467 72.73 46.945 72.77 47.422 72.848C47.781 72.927 48.139 72.966 48.498 73.045C49.254 73.242 49.971 73.478 50.648 73.832C48.816 73.989 46.984 73.95 45.193 73.792Z" fill="#C8A851" />
</svg>
    