<svg width="16" height="16" viewBox="0 0 16 16" fill="none" xmlns="http://www.w3.org/2000/svg">
    <path d="M8.00005 15.0825C8.77255 15.0927 9.53935 14.9492 10.256 14.6606C10.9726 14.372 11.6248 13.9439 12.1746 13.4012C12.7244 12.8585 13.161 12.212 13.459 11.4992C13.757 10.7865 13.9104 10.0216 13.9104 9.24904C13.9104 8.47648 13.757 7.71161 13.459 6.99883C13.161 6.28605 12.7244 5.63956 12.1746 5.09686C11.6248 4.55417 10.9726 4.12609 10.256 3.83746C9.53935 3.54884 8.77255 3.40542 8.00005 3.41554C6.46614 3.43562 5.00186 4.05906 3.92425 5.15087C2.84665 6.24268 2.24243 7.715 2.24243 9.24904C2.24243 10.7831 2.84665 12.2554 3.92425 13.3472C5.00186 14.439 6.46614 15.0625 8.00005 15.0825V15.0825Z" stroke="white" stroke-width="1.5" stroke-linecap="round" stroke-linejoin="round" />
    <path d="M1.33301 4.07499C2.58001 2.19999 5.09801 0.916992 8.00001 0.916992C10.902 0.916992 13.42 2.19899 14.667 4.07499" stroke="white" stroke-width="1.5" stroke-linecap="round" stroke-linejoin="round" />
</svg>
    