<svg width="20" height="20" viewBox="0 0 20 20" fill="none" xmlns="http://www.w3.org/2000/svg">
    <path d="M10 19.375C15.1777 19.375 19.375 15.1777 19.375 10C19.375 4.82233 15.1777 0.625 10 0.625C4.82233 0.625 0.625 4.82233 0.625 10C0.625 15.1777 4.82233 19.375 10 19.375Z" fill="url(#paint0_linear_64_113426)" />
    <path d="M14.166 4.76803C14.349 4.09303 14.051 3.26403 13.326 3.28203C11.933 3.26203 11.706 5.20703 11.862 6.90703L10.384 8.16703C9.83397 7.69703 9.06397 7.60403 8.37297 7.76703C6.05897 8.33503 5.20597 11.634 6.17397 13.527C5.70097 14.637 5.76797 15.999 6.41397 17.029C6.95697 18.114 8.60497 18.466 8.27697 17.754C8.19997 17.657 8.19997 17.692 8.08197 17.679C6.53597 17.581 6.14997 15.259 6.57697 14.147C7.94697 15.759 10.967 15.207 12.032 13.771C13.608 11.659 13.071 9.09903 12.746 6.79903C13.321 6.22603 13.963 5.59103 14.166 4.76903V4.76803ZM6.42997 12.837C5.64197 9.76703 8.26897 7.28203 9.95997 8.53303H9.96097C8.4904 9.69936 7.28645 11.1669 6.42997 12.837ZM11.368 13.197C10.458 14.817 7.74797 15.173 6.73397 13.541C7.02825 12.6732 7.48053 11.8673 8.06797 11.164L8.07597 11.161C8.73881 10.3708 9.46343 9.63444 10.243 8.95903C10.593 10.035 9.72997 11.489 8.72197 11.418C8.78197 12.368 10.192 11.629 10.466 11.249C11.126 10.529 11.185 9.20803 10.714 8.54203L11.92 7.52803C12.17 10.412 12.342 11.265 11.368 13.198V13.197ZM12.665 6.14203C12.414 3.44203 13.467 3.70503 13.602 3.93703C13.965 4.67603 13.002 5.91103 12.665 6.14203Z" fill="#0A0E17" />
    <defs>
        <linearGradient id="paint0_linear_64_113426" x1="10" y1="0.625" x2="10" y2="19.375" gradientUnits="userSpaceOnUse">
            <stop stop-color="#DAAB16" />
            <stop offset="1" stop-color="#A78A30" />
        </linearGradient>
    </defs>
</svg>
    