<svg viewBox="0 0 18 18" fill="none" xmlns="http://www.w3.org/2000/svg">
    <path d="M9.00035 6.1875H9C8.44374 6.1875 7.89997 6.35245 7.43746 6.66149C6.97495 6.97053 6.61446 7.40979 6.40159 7.9237C6.18872 8.43762 6.13302 9.00312 6.24154 9.54869C6.35006 10.0943 6.61793 10.5954 7.01126 10.9887C7.4046 11.3821 7.90574 11.6499 8.45131 11.7585C8.99688 11.867 9.56238 11.8113 10.0763 11.5984C10.5902 11.3855 11.0295 11.0251 11.3385 10.5625C11.6476 10.1 11.8125 9.55626 11.8125 9V8.99965C11.8117 8.25408 11.5151 7.53928 10.9879 7.01209C10.4607 6.48489 9.74592 6.18834 9.00035 6.1875ZM8.99965 12.4375C8.3199 12.4374 7.65543 12.2358 7.09023 11.8582C6.52493 11.4805 6.08434 10.9436 5.82417 10.3155C5.56399 9.68735 5.49592 8.99619 5.62855 8.32938C5.76119 7.66257 6.08858 7.05007 6.56932 6.56932C7.05007 6.08858 7.66257 5.76119 8.32938 5.62855C8.99619 5.49592 9.68735 5.56399 10.3155 5.82417C10.9436 6.08434 11.4805 6.52493 11.8582 7.09023C12.2358 7.65543 12.4374 8.3199 12.4375 8.99965C12.4365 9.91112 12.074 10.785 11.4295 11.4295C10.785 12.074 9.91112 12.4365 8.99965 12.4375Z" fill="currentColor" stroke="currentColor" stroke-width="0.625" />
    <path d="M9.0002 14.9375C8.16492 14.9369 7.33913 14.7604 6.57661 14.4195C5.90937 14.1211 5.30367 13.7027 4.78927 13.186L5.25542 12.7687C5.80814 13.3178 6.47588 13.7396 7.21198 14.0027C8.04644 14.3009 8.94223 14.3856 9.8178 14.2491C10.6934 14.1127 11.5209 13.7594 12.225 13.2214C12.9292 12.6834 13.4876 11.9778 13.8493 11.1689C14.2111 10.3599 14.3648 9.47337 14.2964 8.58987C14.228 7.70638 13.9396 6.85402 13.4577 6.11043C12.9757 5.36684 12.3153 4.75562 11.5368 4.33244C10.8499 3.95911 10.0903 3.74258 9.31248 3.69671V3.07072C10.7734 3.14766 12.1588 3.76194 13.1984 4.80155C14.3119 5.91505 14.9375 7.42528 14.9375 9C14.9375 10.5747 14.3119 12.0849 13.1984 13.1984C12.085 14.3119 10.5748 14.9374 9.0002 14.9375Z" fill="currentColor" stroke="currentColor" stroke-width="0.625" />
    <path d="M9 17.75C7.26942 17.75 5.57769 17.2368 4.13876 16.2754C2.69983 15.3139 1.57832 13.9473 0.916058 12.3485C0.253791 10.7496 0.0805121 8.9903 0.418133 7.29296C0.755753 5.59563 1.58911 4.03653 2.81282 2.81282C4.03653 1.58911 5.59563 0.755753 7.29296 0.418133C8.9903 0.0805121 10.7496 0.253791 12.3485 0.916058C13.9473 1.57832 15.3139 2.69983 16.2754 4.13876C17.2368 5.57769 17.75 7.26942 17.75 9C17.7474 11.3198 16.8247 13.5439 15.1843 15.1843C13.5439 16.8247 11.3198 17.7474 9 17.75V17.75ZM9 1.5C7.51664 1.5 6.0666 1.93987 4.83323 2.76398C3.59986 3.58809 2.63856 4.75943 2.07091 6.12988C1.50325 7.50032 1.35473 9.00832 1.64411 10.4632C1.9335 11.918 2.64781 13.2544 3.6967 14.3033C4.7456 15.3522 6.08197 16.0665 7.53683 16.3559C8.99168 16.6453 10.4997 16.4968 11.8701 15.9291C13.2406 15.3614 14.4119 14.4001 15.236 13.1668C16.0601 11.9334 16.5 10.4834 16.5 9C16.4977 7.01158 15.7068 5.10524 14.3008 3.69921C12.8948 2.29317 10.9884 1.50227 9 1.5V1.5Z" fill="currentColor" />
</svg>
    