<svg viewBox="0 0 14 18" fill="none" xmlns="http://www.w3.org/2000/svg">
    <path d="M8.47097 1.52903L7.9375 0.995558V1.75V5.25V5.5625H8.25H11.75H12.5044L11.971 5.02903L8.47097 1.52903ZM12 16.8125H12.3125V16.5V6.5V6.1875H12H8.25C7.73509 6.1875 7.3125 5.76491 7.3125 5.25V1.5V1.1875H7H2H1.6875V1.5V16.5V16.8125H2H12ZM8.46653 0.658471L12.8415 5.03347C12.8856 5.07752 12.9062 5.10916 12.9176 5.13473C12.9283 5.15895 12.9375 5.19271 12.9375 5.25V16.5C12.9375 17.0149 12.5149 17.4375 12 17.4375H2C1.48509 17.4375 1.0625 17.0149 1.0625 16.5V1.5C1.0625 0.985089 1.48509 0.5625 2 0.5625H8.25C8.30729 0.5625 8.34105 0.571678 8.36527 0.582441C8.39084 0.593807 8.42248 0.614419 8.46653 0.658471Z" fill="#CFD3DD" stroke="#CFD3DD" stroke-width="0.625" />
</svg>
    