<svg viewBox="0 0 14 14" fill="none" xmlns="http://www.w3.org/2000/svg">
    <path d="M0 7C0 3.13401 3.13401 0 7 0C10.866 0 14 3.13401 14 7C14 10.866 10.866 14 7 14C3.13401 14 0 10.866 0 7Z" fill="#21242F" />
    <path d="M6.99897 2L6.93188 2.22789V8.84004L6.99897 8.90697L10.0682 7.09273L6.99897 2Z" fill="white" />
    <path d="M6.99899 2L3.92969 7.09273L6.99899 8.90697V5.69762V2Z" fill="white" />
    <path d="M6.99899 9.48811L6.96118 9.53422V11.8896L6.99899 12L10.0701 7.6748L6.99899 9.48811Z" fill="white" />
    <path d="M6.99899 12V9.48811L3.92969 7.6748L6.99899 12Z" fill="white" />
    <path d="M6.99902 8.90699L10.0683 7.09274L6.99902 5.69763V8.90699Z" fill="white" />
    <path d="M3.92969 7.09274L6.99899 8.90699V5.69763L3.92969 7.09274Z" fill="white" />
</svg>
    