<svg viewBox="0 0 13 13" fill="none" xmlns="http://www.w3.org/2000/svg">
    <path d="M11 13H1C0.734893 12.9996 0.480747 12.8942 0.293288 12.7067C0.105829 12.5193 0.000357171 12.2651 0 12V2C0.000357171 1.73489 0.105829 1.48075 0.293288 1.29329C0.480747 1.10583 0.734893 1.00036 1 1H6V2H1V12H11V7H12V12C11.9996 12.2651 11.8942 12.5193 11.7067 12.7067C11.5193 12.8942 11.2651 12.9996 11 13Z" fill="#F8F9FC" />
    <path d="M8 0V1H11.293L7 5.293L7.707 6L12 1.707V5H13V0H8Z" fill="#F8F9FC" />
</svg>
    