<svg viewBox="0 0 14 18" fill="none" xmlns="http://www.w3.org/2000/svg">
    <path d="M12 7.75H10.75V4C10.75 3.00544 10.3549 2.05161 9.65165 1.34835C8.94839 0.645088 7.99456 0.25 7 0.25C6.00544 0.25 5.05161 0.645088 4.34835 1.34835C3.64509 2.05161 3.25 3.00544 3.25 4V7.75H2C1.66848 7.75 1.35054 7.8817 1.11612 8.11612C0.881696 8.35054 0.75 8.66848 0.75 9V16.5C0.75 16.8315 0.881696 17.1495 1.11612 17.3839C1.35054 17.6183 1.66848 17.75 2 17.75H12C12.3315 17.75 12.6495 17.6183 12.8839 17.3839C13.1183 17.1495 13.25 16.8315 13.25 16.5V9C13.25 8.66848 13.1183 8.35054 12.8839 8.11612C12.6495 7.8817 12.3315 7.75 12 7.75ZM4.5 4C4.5 3.33696 4.76339 2.70107 5.23223 2.23223C5.70107 1.76339 6.33696 1.5 7 1.5C7.66304 1.5 8.29893 1.76339 8.76777 2.23223C9.23661 2.70107 9.5 3.33696 9.5 4V7.75H4.5V4ZM12 16.5H2V9H12V16.5Z" fill="#9699A5" />
</svg>
    