<svg viewBox="0 0 22 20" fill="none" xmlns="http://www.w3.org/2000/svg">
	<path d="M20.011 0.751953L12.1979 6.53307L13.6508 3.12607L20.011 0.751953Z" fill="#E17726" stroke="#E17726" stroke-width="0.148717" stroke-linecap="round" stroke-linejoin="round" />
	<path d="M1.98928 0.751953L9.73279 6.58703L8.34948 3.12607L1.98928 0.751953Z" fill="#E27625" stroke="#E27625" stroke-width="0.148717" stroke-linecap="round" stroke-linejoin="round" />
	<path d="M17.1977 14.1575L15.1189 17.3332L19.5702 18.5589L20.8454 14.2269L17.1977 14.1575Z" fill="#E27625" stroke="#E27625" stroke-width="0.148717" stroke-linecap="round" stroke-linejoin="round" />
	<path d="M1.16205 14.2269L2.42944 18.5589L6.87309 17.3332L4.80195 14.1575L1.16205 14.2269Z" fill="#E27625" stroke="#E27625" stroke-width="0.148717" stroke-linecap="round" stroke-linejoin="round" />
	<path d="M6.63354 8.79214L5.39707 10.6575L9.80205 10.8579L9.65524 6.11743L6.63354 8.79214Z" fill="#E27625" stroke="#E27625" stroke-width="0.148717" stroke-linecap="round" stroke-linejoin="round" />
	<path d="M15.3664 8.79264L12.2984 6.06396L12.1979 10.8584L16.6029 10.658L15.3664 8.79264Z" fill="#E27625" stroke="#E27625" stroke-width="0.148717" stroke-linecap="round" stroke-linejoin="round" />
	<path d="M6.87321 17.3329L9.53935 16.0456L7.24417 14.2573L6.87321 17.3329Z" fill="#E27625" stroke="#E27625" stroke-width="0.148717" stroke-linecap="round" stroke-linejoin="round" />
	<path d="M12.4606 16.0456L15.119 17.3329L14.7558 14.2573L12.4606 16.0456Z" fill="#E27625" stroke="#E27625" stroke-width="0.148717" stroke-linecap="round" stroke-linejoin="round" />
	<path d="M15.119 17.3315L12.4606 16.0443L12.6769 17.7709L12.6537 18.5032L15.119 17.3315Z" fill="#D5BFB2" stroke="#D5BFB2" stroke-width="0.148717" stroke-linecap="round" stroke-linejoin="round" />
	<path d="M6.87321 17.3315L9.3462 18.5032L9.33073 17.7709L9.53935 16.0443L6.87321 17.3315Z" fill="#D5BFB2" stroke="#D5BFB2" stroke-width="0.148717" stroke-linecap="round" stroke-linejoin="round" />
	<path d="M9.39249 13.1167L7.18225 12.4692L8.74331 11.7523L9.39249 13.1167Z" fill="#233447" stroke="#233447" stroke-width="0.148717" stroke-linecap="round" stroke-linejoin="round" />
	<path d="M12.6075 13.1167L13.2566 11.7523L14.8254 12.4692L12.6075 13.1167Z" fill="#233447" stroke="#233447" stroke-width="0.148717" stroke-linecap="round" stroke-linejoin="round" />
	<path d="M6.87328 17.3332L7.25971 14.1575L4.80219 14.2269L6.87328 17.3332Z" fill="#CC6228" stroke="#CC6228" stroke-width="0.148717" stroke-linecap="round" stroke-linejoin="round" />
	<path d="M14.7401 14.1575L15.1188 17.3332L17.1977 14.2269L14.7401 14.1575Z" fill="#CC6228" stroke="#CC6228" stroke-width="0.148717" stroke-linecap="round" stroke-linejoin="round" />
	<path d="M16.6029 10.658L12.1979 10.8584L12.6075 13.1169L13.2567 11.7525L14.8255 12.4694L16.6029 10.658Z" fill="#CC6228" stroke="#CC6228" stroke-width="0.148717" stroke-linecap="round" stroke-linejoin="round" />
	<path d="M7.18225 12.4694L8.7433 11.7525L9.39248 13.1169L9.80205 10.8584L5.39707 10.658L7.18225 12.4694Z" fill="#CC6228" stroke="#CC6228" stroke-width="0.148717" stroke-linecap="round" stroke-linejoin="round" />
	<path d="M5.39758 10.658L7.2446 14.2577L7.18273 12.4694L5.39758 10.658Z" fill="#E27525" stroke="#E27525" stroke-width="0.148717" stroke-linecap="round" stroke-linejoin="round" />
	<path d="M14.8253 12.4694L14.7558 14.2577L16.6028 10.658L14.8253 12.4694Z" fill="#E27525" stroke="#E27525" stroke-width="0.148717" stroke-linecap="round" stroke-linejoin="round" />
	<path d="M9.80227 10.8577L9.39264 13.1162L9.91041 15.7832L10.0264 12.2683L9.80227 10.8577Z" fill="#E27525" stroke="#E27525" stroke-width="0.148717" stroke-linecap="round" stroke-linejoin="round" />
	<path d="M12.1977 10.8577L11.9812 12.2606L12.0894 15.7832L12.6072 13.1162L12.1977 10.8577Z" fill="#E27525" stroke="#E27525" stroke-width="0.148717" stroke-linecap="round" stroke-linejoin="round" />
	<path d="M12.6077 13.1155L12.0899 15.7825L12.4608 16.0446L14.7561 14.2563L14.8256 12.468L12.6077 13.1155Z" fill="#F5841F" stroke="#F5841F" stroke-width="0.148717" stroke-linecap="round" stroke-linejoin="round" />
	<path d="M7.18225 12.468L7.24412 14.2563L9.5393 16.0446L9.91026 15.7825L9.39249 13.1155L7.18225 12.468Z" fill="#F5841F" stroke="#F5841F" stroke-width="0.148717" stroke-linecap="round" stroke-linejoin="round" />
	<path d="M12.6538 18.5032L12.6769 17.7709L12.476 17.6013H9.52395L9.33073 17.7709L9.3462 18.5032L6.87321 17.3315L7.73874 18.0407L9.49301 19.2509H12.4992L14.2612 18.0407L15.119 17.3315L12.6538 18.5032Z" fill="#C0AC9D" stroke="#C0AC9D" stroke-width="0.148717" stroke-linecap="round" stroke-linejoin="round" />
	<path d="M12.4609 16.0462L12.09 15.7842H9.91067L9.53977 16.0462L9.33109 17.7729L9.52431 17.6033H12.4764L12.6774 17.7729L12.4609 16.0462Z" fill="#161616" stroke="#161616" stroke-width="0.148717" stroke-linecap="round" stroke-linejoin="round" />
	<path d="M20.3431 6.91075L21 3.7196L20.0108 0.751953L12.4606 6.34039L15.3663 8.79155L19.4699 9.98635L20.3741 8.93034L19.98 8.6451L20.6059 8.07474L20.1268 7.70473L20.7528 7.22681L20.3431 6.91075Z" fill="#763E1A" stroke="#763E1A" stroke-width="0.148717" stroke-linecap="round" stroke-linejoin="round" />
	<path d="M1 3.7196L1.66461 6.91075L1.23957 7.22681L1.87327 7.70473L1.39413 8.07474L2.0201 8.6451L1.62597 8.93034L2.53015 9.98635L6.63377 8.79155L9.53947 6.34039L1.98919 0.751953L1 3.7196Z" fill="#763E1A" stroke="#763E1A" stroke-width="0.148717" stroke-linecap="round" stroke-linejoin="round" />
	<path d="M19.4699 9.98673L15.3663 8.79199L16.6028 10.6574L14.7558 14.2571L17.1979 14.2262H20.8455L19.4699 9.98673Z" fill="#F5841F" stroke="#F5841F" stroke-width="0.148717" stroke-linecap="round" stroke-linejoin="round" />
	<path d="M6.63347 8.79199L2.52991 9.98673L1.16205 14.2262H4.80195L7.24399 14.2571L5.39701 10.6574L6.63347 8.79199Z" fill="#F5841F" stroke="#F5841F" stroke-width="0.148717" stroke-linecap="round" stroke-linejoin="round" />
	<path d="M12.1979 10.8581L12.4607 6.34111L13.6508 3.12683H8.34934L9.53944 6.34111L9.80219 10.8581L9.90267 12.2764L9.9104 15.7836H12.0897L12.0974 12.2764L12.1979 10.8581Z" fill="#F5841F" stroke="#F5841F" stroke-width="0.148717" stroke-linecap="round" stroke-linejoin="round" />
</svg>
	