<svg width="12" height="11" viewBox="0 0 12 11" fill="none" xmlns="http://www.w3.org/2000/svg">
    <path d="M8.7966 3.52183C8.59338 3.4057 8.33209 3.4057 8.09983 3.52183L6.47404 4.47988L5.37082 5.08956L3.77406 6.04761C3.57084 6.16374 3.30955 6.16374 3.0773 6.04761L1.82892 5.29278C1.6257 5.17665 1.48054 4.9444 1.48054 4.68311V3.23151C1.48054 2.99925 1.59666 2.767 1.82892 2.62184L3.0773 1.89604C3.28052 1.77991 3.54181 1.77991 3.77406 1.89604L5.02244 2.65087C5.22566 2.767 5.37082 2.99925 5.37082 3.26054V4.2186L6.47404 3.57989V2.5928C6.47404 2.36055 6.35791 2.12829 6.12566 1.98313L3.8031 0.618628C3.59987 0.5025 3.33858 0.5025 3.10633 0.618628L0.725703 2.01216C0.493447 2.12829 0.377319 2.36055 0.377319 2.5928V5.32181C0.377319 5.55407 0.493447 5.78632 0.725703 5.93148L3.0773 7.29599C3.28052 7.41212 3.54181 7.41212 3.77406 7.29599L5.37082 6.36696L6.47404 5.72826L8.0708 4.79924C8.27402 4.68311 8.53531 4.68311 8.76757 4.79924L10.0159 5.52504C10.2192 5.64116 10.3643 5.87342 10.3643 6.13471V7.58631C10.3643 7.81856 10.2482 8.05082 10.0159 8.19598L8.7966 8.92178C8.59338 9.03791 8.33209 9.03791 8.09983 8.92178L6.85146 8.19598C6.64823 8.07985 6.50307 7.8476 6.50307 7.58631V6.65728L5.39986 7.29599V8.25404C5.39986 8.4863 5.51598 8.71856 5.74824 8.86372L8.09983 10.2282C8.30306 10.3443 8.56434 10.3443 8.7966 10.2282L11.1482 8.86372C11.3514 8.74759 11.4966 8.51533 11.4966 8.25404V5.496C11.4966 5.26375 11.3804 5.03149 11.1482 4.88633L8.7966 3.52183Z" fill="white" />
</svg>
    