<svg viewBox="0 0 18 14" fill="none" xmlns="http://www.w3.org/2000/svg">
    <path d="M11.4998 1.0625H11.5C13.0747 1.0625 14.5849 1.68806 15.6984 2.80155C16.8119 3.91505 17.4375 5.42528 17.4375 7C17.4375 8.57472 16.8119 10.085 15.6984 11.1984C14.5849 12.3119 13.0747 12.9375 11.5 12.9375H11.4998C10.6825 12.9379 9.874 12.7681 9.12585 12.439L9 12.3836L8.87415 12.439C8.126 12.7681 7.31751 12.9379 6.50016 12.9375H6.5C4.92528 12.9375 3.41505 12.3119 2.30155 11.1984C1.18806 10.085 0.5625 8.57472 0.5625 7C0.5625 5.42528 1.18806 3.91505 2.30155 2.80155C3.41505 1.68806 4.92528 1.0625 6.5 1.0625L6.50016 1.0625C7.31751 1.06209 8.126 1.23187 8.87415 1.56104L9 1.61641L9.12585 1.56104C9.874 1.23187 10.6825 1.06209 11.4998 1.0625ZM6.5 12.3125H6.5003C6.89389 12.3121 7.28619 12.2675 7.66983 12.1796L8.2992 12.0353L7.79556 11.6313C7.10209 11.0749 6.54242 10.3699 6.15785 9.56834C5.77328 8.76676 5.57362 7.88906 5.57362 7C5.57362 6.11094 5.77328 5.23324 6.15785 4.43166C6.54242 3.63009 7.10209 2.9251 7.79556 2.36875L8.2992 1.96468L7.66983 1.8204C7.28619 1.73245 6.89389 1.68787 6.5003 1.6875H6.5C5.09104 1.6875 3.73978 2.24721 2.7435 3.2435C1.74721 4.23978 1.1875 5.59104 1.1875 7C1.1875 8.40896 1.74721 9.76022 2.7435 10.7565C3.73978 11.7528 5.09104 12.3125 6.5 12.3125ZM11.8125 7.00032L11.8125 6.99968C11.8115 6.06806 11.5656 5.15308 11.0994 4.34652C10.6332 3.53996 9.96305 2.87017 9.15625 2.40437L8.99963 2.31394L8.8432 2.40469C8.03815 2.87168 7.3699 3.54198 6.90538 4.34846C6.44086 5.15494 6.19636 6.06931 6.19636 7C6.19636 7.9307 6.44086 8.84506 6.90538 9.65154C7.3699 10.458 8.03815 11.1283 8.8432 11.5953L8.99963 11.6861L9.15625 11.5956C9.96305 11.1298 10.6332 10.46 11.0994 9.65348C11.5656 8.84692 11.8115 7.93194 11.8125 7.00032ZM10.2044 11.6313L9.7008 12.0353L10.3302 12.1796C10.7138 12.2675 11.1061 12.3121 11.4997 12.3125H11.5C12.909 12.3125 14.2602 11.7528 15.2565 10.7565C16.2528 9.76022 16.8125 8.40896 16.8125 7C16.8125 5.59104 16.2528 4.23978 15.2565 3.2435C14.2602 2.24721 12.909 1.6875 11.5 1.6875L11.4997 1.6875C11.1061 1.68787 10.7138 1.73245 10.3302 1.8204L9.7008 1.96468L10.2044 2.36875C10.8979 2.9251 11.4576 3.63009 11.8422 4.43166C12.2267 5.23324 12.4264 6.11094 12.4264 7C12.4264 7.88906 12.2267 8.76676 11.8422 9.56834C11.4576 10.3699 10.8979 11.0749 10.2044 11.6313Z" fill="currentColor" stroke="currentColor" stroke-width="0.625" />
</svg>
    