<svg viewBox="0 0 14 14" fill="none" xmlns="http://www.w3.org/2000/svg">
    <path d="M11 12V13H12V12H11Z" fill="#EDEFF5" />
    <path d="M8 10V11H9V10H8Z" fill="#EDEFF5" />
    <path d="M8 14H10V13H9V12H8V14Z" fill="#EDEFF5" />
    <path d="M12 10L12 12H13V10H12Z" fill="#EDEFF5" />
    <path d="M13 12H14V14H12V13H13L13 12Z" fill="#EDEFF5" />
    <path d="M12 9V8H14V10H13L13 9H12Z" fill="#EDEFF5" />
    <path d="M11 9H10V11H9V12H11V9Z" fill="#EDEFF5" />
    <path d="M8 8V9H10V8H8Z" fill="#EDEFF5" />
    <path d="M4 10H2V12H4V10Z" fill="#EDEFF5" />
    <path d="M6 14H0V8H6V14ZM1 13H5V9H1V13Z" fill="#EDEFF5" />
    <path d="M12 2H10V4H12V2Z" fill="#EDEFF5" />
    <path d="M14 6H8V0H14V6ZM9 5H13V1H9V5Z" fill="#EDEFF5" />
    <path d="M4 2H2V4H4V2Z" fill="#EDEFF5" />
    <path d="M6 6H0V0H6V6ZM1 5H5V1H1V5Z" fill="#EDEFF5" />
</svg>
    