<svg viewBox="0 0 18 18" fill="none" xmlns="http://www.w3.org/2000/svg">
    <path d="M17.125 16.7411L12.405 12.021C13.5392 10.6594 14.1047 8.91288 13.984 7.14485C13.8633 5.37682 13.0657 3.72339 11.7569 2.52851C10.4482 1.33363 8.72922 0.689302 6.95753 0.729562C5.18584 0.769822 3.49788 1.49157 2.24479 2.74467C0.991693 3.99776 0.269944 5.68572 0.229684 7.45741C0.189424 9.2291 0.833753 10.9481 2.02863 12.2568C3.22351 13.5655 4.87695 14.3632 6.64498 14.4839C8.413 14.6046 10.1595 14.039 11.5212 12.9048L16.2412 17.6249L17.125 16.7411ZM1.50003 7.6249C1.50003 6.51238 1.82993 5.42485 2.44801 4.49982C3.06609 3.5748 3.9446 2.85382 4.97243 2.42808C6.00027 2.00234 7.13127 1.89094 8.22241 2.10799C9.31355 2.32503 10.3158 2.86076 11.1025 3.64743C11.8892 4.4341 12.4249 5.43638 12.6419 6.52752C12.859 7.61866 12.7476 8.74966 12.3218 9.7775C11.8961 10.8053 11.1751 11.6838 10.2501 12.3019C9.32508 12.92 8.23755 13.2499 7.12503 13.2499C5.63369 13.2483 4.20391 12.6551 3.14938 11.6006C2.09484 10.546 1.50168 9.11624 1.50003 7.6249Z" fill="currentColor" />
</svg>
    