<svg viewBox="0 0 22 18" fill="none" xmlns="http://www.w3.org/2000/svg">
    <path d="M21.5 3H18.425C18.05 1.275 16.55 0 14.75 0C12.95 0 11.45 1.275 11.075 3H0.5V4.5H11.075C11.45 6.225 12.95 7.5 14.75 7.5C16.55 7.5 18.05 6.225 18.425 4.5H21.5V3ZM14.75 6C13.475 6 12.5 5.025 12.5 3.75C12.5 2.475 13.475 1.5 14.75 1.5C16.025 1.5 17 2.475 17 3.75C17 5.025 16.025 6 14.75 6Z" fill="#CFD3DD" />
    <path d="M0.5 15H3.575C3.95 16.725 5.45 18 7.25 18C9.05 18 10.55 16.725 10.925 15H21.5V13.5H10.925C10.55 11.775 9.05 10.5 7.25 10.5C5.45 10.5 3.95 11.775 3.575 13.5H0.5V15ZM7.25 12C8.525 12 9.5 12.975 9.5 14.25C9.5 15.525 8.525 16.5 7.25 16.5C5.975 16.5 5 15.525 5 14.25C5 12.975 5.975 12 7.25 12Z" fill="#CFD3DD" />
</svg>
    