<svg viewBox="0 0 44 44" fill="none" xmlns="http://www.w3.org/2000/svg">
    <path d="M36.7316 8.1302C32.6084 4.78581 27.3364 3.1953 22.0516 3.70148C16.7668 4.20765 11.8925 6.76997 8.47915 10.8362C6.22129 13.5342 4.69546 16.7677 4.04835 20.2258C3.40316 23.6671 3.66469 27.217 4.80723 30.5266C5.94976 33.8362 7.93397 36.7914 10.5648 39.1018C10.9432 39.423 11.3304 39.7266 11.7264 40.0214C11.7264 40.0214 15.4752 43.0706 16.7028 41.3414H16.7292C18.2208 43.0662 20.346 43.9418 23.052 43.9418C24.8878 43.9756 26.7085 43.6045 28.3848 42.855C29.85 42.1949 31.1079 41.1484 32.0236 39.8278C32.9117 38.5292 33.5723 37.0889 33.9772 35.5686C34.1693 34.8362 34.3162 34.0926 34.4172 33.3422L34.4436 33.1926C34.4788 32.911 34.5008 32.6294 34.5272 32.3478C34.5272 32.2246 34.5536 32.1014 34.5624 31.9782C34.5624 31.7626 34.5624 31.5382 34.5844 31.327C34.6064 31.1158 34.5844 30.9618 34.5844 30.777V30.7374C34.5844 29.105 34.2456 26.0162 33.5812 21.5458C34.717 20.5137 35.7325 19.3565 36.6084 18.0962C36.9498 17.6147 37.2182 17.0854 37.4048 16.5254V16.477C37.44 16.3582 37.4752 16.235 37.506 16.1118C37.506 16.0766 37.506 16.0414 37.506 16.0062C37.5324 15.9006 37.5544 15.795 37.572 15.685V15.5574C37.5904 15.4556 37.6022 15.3527 37.6072 15.2494C37.6095 15.2069 37.6095 15.1643 37.6072 15.1218C37.6072 15.0426 37.6072 14.9678 37.6072 14.8886V14.783C37.6005 14.6548 37.5873 14.527 37.5676 14.4002C37.5676 14.3562 37.5676 14.3122 37.5676 14.2682C37.5391 14.1388 37.5038 14.0111 37.462 13.8854C37.462 13.8458 37.462 13.8062 37.4312 13.7666C37.3804 13.6255 37.3186 13.4887 37.2464 13.3574C37.2403 13.3358 37.2314 13.3151 37.22 13.2958C37.1371 13.1414 37.0414 12.9942 36.934 12.8558C36.742 12.6206 36.5023 12.4288 36.2308 12.2931C35.9593 12.1573 35.6621 12.0807 35.3588 12.0682H35.2048C32.4636 12.0682 31.0776 14.6202 31.0776 19.6626C31.0775 20.3873 31.1172 21.1114 31.1963 21.8318L27.1484 25.2286C26.0749 24.3461 24.7131 23.8916 23.3248 23.9526C22.1784 23.9489 21.047 24.2126 20.0204 24.7226C19.0083 25.2166 18.1095 25.9147 17.3804 26.773C16.5744 27.7873 15.9153 28.9101 15.4224 30.1082C14.8652 31.4804 14.5668 32.9438 14.5424 34.4246V34.9306C14.5287 36.5683 14.8978 38.1865 15.6204 39.6562L15.6512 39.7002C15.6812 39.7436 15.6946 39.7964 15.689 39.8489C15.6833 39.9014 15.659 39.9502 15.6204 39.9862C15.1804 40.501 13.7636 41.3722 11.8364 39.8762C11.4624 39.5814 11.0972 39.2734 10.7452 38.9478C8.23434 36.6181 6.35818 33.6873 5.29354 30.4318C4.2289 27.1763 4.01085 23.7033 4.65995 20.3402C5.6517 15.2965 8.55121 10.8299 12.7544 7.8709C16.9577 4.91192 22.1405 3.68875 27.2232 4.4562C33.964 5.4066 39.4684 10.0706 42.1832 16.4418C40.9248 13.2166 39.4288 10.3302 36.7316 8.1302ZM22.6516 25.4134C22.7748 25.4134 22.8936 25.387 23.0168 25.3826H23.7912C24.5994 25.4089 25.3749 25.7082 25.9912 26.2318C21.204 30.3194 17.9612 34.209 16.3112 37.8082C16.0472 36.8839 15.9154 35.927 15.9196 34.9658C15.9197 33.8368 16.0949 32.7147 16.4388 31.6394C17.2088 29.1138 18.4936 27.2966 20.2536 26.2362C20.9785 25.8106 21.7824 25.5367 22.6164 25.431L22.6516 25.4134ZM35.2048 13.4718C35.6448 13.4718 36.1948 13.6258 36.1948 14.9282C36.1948 16.2306 35.2532 17.8674 33.392 19.7682C33.3216 19.0466 33.2864 18.4482 33.2864 17.9642C33.2864 14.9854 33.9332 13.4718 35.2048 13.4718ZM26.9768 28.775C26.9682 30.2682 26.376 31.6989 25.3268 32.7614C25.0369 33.1293 24.671 33.4302 24.2541 33.6436C23.8372 33.857 23.3791 33.9778 22.9112 33.9978H22.5988L22.6516 34.3058C22.6863 34.5611 22.802 34.7986 22.9816 34.9834C23.0285 35.0225 23.0786 35.0578 23.1312 35.089C23.151 35.096 23.1702 35.1048 23.1884 35.1154L23.294 35.1594C23.3217 35.1634 23.3498 35.1634 23.3776 35.1594H23.734C24.7822 35.1595 25.8001 34.8078 26.6248 34.1606C27.4095 33.5713 28.0181 32.7785 28.3848 31.8682C28.7273 30.9389 28.8958 29.9545 28.8819 28.9642C28.8867 27.976 28.5955 27.0091 28.046 26.1878L31.3152 23.4774C31.6848 27.3362 31.8563 29.6682 31.8563 30.4162C31.8563 33.681 31.17 36.4926 29.8148 38.7762C29.1317 39.9215 28.1549 40.8633 26.9856 41.5042C25.6978 42.191 24.256 42.5379 22.7968 42.5118C20.236 42.5118 18.3968 41.5922 17.1736 39.7002C17.9868 37.3584 19.2248 35.1866 20.8256 33.2938C22.6452 31.1666 24.6299 29.1863 26.7612 27.3714C26.9051 27.8253 26.9779 28.2988 26.9768 28.775Z" fill="#C8A851" />
    <path d="M4.60275 34.8162C4.19058 34.0615 3.81755 33.2861 3.48515 32.493C3.16293 31.6971 2.88241 30.8849 2.64475 30.0598L2.45555 29.4526L2.32795 28.8234L2.05515 27.5782C1.97191 27.1615 1.91752 26.7396 1.89235 26.3154C1.85715 25.8886 1.76475 25.4882 1.76475 25.0482C1.59921 21.6622 2.18991 18.2818 3.49395 15.1526C4.8369 12.0488 6.87168 9.29314 9.44275 7.0962C12.0096 4.9112 15.0542 3.36027 18.3308 2.5686C18.74 2.4762 19.1404 2.3354 19.5584 2.2782L20.808 2.089L21.4328 1.9922L22.0664 1.9614L23.3248 1.8954C23.7402 1.88462 24.156 1.89784 24.57 1.935C25.01 1.9658 25.4192 1.935 25.8372 2.0186L27.0956 2.1858C27.2848 2.221 27.5356 2.2342 27.7248 2.2782L28.3496 2.4278L29.5948 2.7314C29.9996 2.8502 30.4 2.9998 30.8048 3.1318C31.6101 3.40097 32.399 3.71684 33.1676 4.0778C33.5658 4.2488 33.9523 4.44576 34.3248 4.6674C34.6988 4.8786 35.0772 5.0766 35.4468 5.2966L36.5028 6.027C36.8643 6.25982 37.2084 6.51864 37.5324 6.8014C40.2562 8.99179 42.4631 11.7562 43.996 14.8974C42.8188 11.5065 40.8257 8.45723 38.1924 6.0182C35.4911 3.53642 32.2267 1.74895 28.6807 0.809941C25.1347 -0.129072 21.4134 -0.191446 17.838 0.628196C17.398 0.733796 16.958 0.817397 16.518 0.953797L15.198 1.3938C14.3301 1.70013 13.4822 2.06016 12.6592 2.4718C12.2405 2.66693 11.8349 2.88886 11.4448 3.1362L10.2744 3.8534C9.89155 4.1086 9.52635 4.3946 9.15675 4.663C8.77684 4.92464 8.41249 5.20818 8.06555 5.5122C5.26928 7.93404 3.07581 10.9742 1.65915 14.3914C0.300231 17.8217 -0.233319 21.5234 0.101552 25.1978C0.143444 25.6527 0.209538 26.1051 0.299552 26.553C0.383152 26.993 0.418352 27.433 0.541552 27.873L0.889152 29.193L1.08715 29.853L1.32475 30.4866C1.62908 31.3391 1.97864 32.1749 2.37195 32.9902C2.77852 33.7968 3.22796 34.5812 3.71835 35.3398C5.70053 38.3328 8.40065 40.7818 11.5724 42.4634C8.70364 40.4709 6.32132 37.8569 4.60275 34.8162Z" fill="#C8A851" />
</svg>
    