<svg viewBox="0 0 20 18" fill="none" xmlns="http://www.w3.org/2000/svg">
    <path d="M2.84249 12.8833L7.08071 15.1473L4.38288 17.9049C4.36577 17.926 4.34224 17.941 4.31586 17.9475C4.28948 17.954 4.26171 17.9517 4.23675 17.941H4.22486L0.173379 15.8683C0.155356 15.8586 0.139647 15.8451 0.127337 15.8288C0.115028 15.8125 0.106411 15.7936 0.10208 15.7737C0.0977504 15.7537 0.0978106 15.733 0.102257 15.713C0.106703 15.693 0.11543 15.6743 0.127835 15.658L2.84249 12.8831V12.8833ZM6.39754 9.34275L6.41714 9.34929L10.4754 11.4218C10.5057 11.4358 10.5295 11.4609 10.542 11.4919C10.5545 11.5229 10.5547 11.5575 10.5427 11.5887L10.5328 11.6085C10.529 11.6183 10.5233 11.6273 10.5162 11.635V11.6495L7.37754 14.8598L3.12724 12.5934L6.2708 9.38513C6.28571 9.36674 6.30555 9.35297 6.32799 9.34543C6.35043 9.33789 6.37455 9.3369 6.39754 9.34256V9.34275ZM17.9916 10.6121C18.533 10.8851 18.6167 11.7812 18.1928 12.6198C17.7686 13.4582 16.9948 13.9158 16.4534 13.6428C15.9118 13.3695 15.828 12.4736 16.252 11.6348C16.6762 10.7988 17.45 10.3388 17.9914 10.6121H17.9916ZM6.60605 3.89879C6.85258 3.89612 7.0971 3.94341 7.32486 4.0378C7.12684 4.09325 6.93516 4.1687 6.75219 4.26295L6.69001 4.29404H6.6013C5.82031 4.29404 5.01041 4.8786 4.57675 5.71721C4.11199 6.63721 4.16962 7.65543 4.67496 8.25919C4.71136 8.48822 4.77081 8.71299 4.85239 8.93008C3.85813 8.32632 3.58249 6.84335 4.24625 5.53998C4.74922 4.52176 5.69813 3.89879 6.60605 3.89879ZM12.4783 3.28533L16.7193 5.54949L15.0684 7.24097L10.756 5.05602L12.4787 3.28533H12.4783ZM15.7197 0.0516672L15.7395 0.0582019L19.8195 2.13068C19.8531 2.14671 19.879 2.17517 19.892 2.21002C19.9049 2.24486 19.9038 2.28338 19.8888 2.31741C19.8852 2.32588 19.8804 2.33381 19.8746 2.34097L17.014 5.25246L12.7661 2.99068L15.5932 0.0940435C15.6059 0.0783726 15.6223 0.0660395 15.6409 0.0581057C15.6595 0.0501718 15.6798 0.046875 15.6999 0.0484989L15.7197 0.0516672Z" fill="#5493F7" />
</svg>
    