<svg viewBox="0 0 20 20" fill="none" xmlns="http://www.w3.org/2000/svg">
    <path d="M10 20C15.5228 20 20 15.5228 20 10C20 4.47715 15.5228 0 10 0C4.47715 0 0 4.47715 0 10C0 15.5228 4.47715 20 10 20Z" fill="#172852" />
    <path d="M8.05498 4.469C9.22598 4.031 10.544 4.03 11.737 4.39C13.29 4.872 14.601 6.044 15.286 7.515C15.475 7.934 15.656 8.371 15.674 8.837C14.801 8.331 13.844 8.003 12.885 7.704C11.351 7.151 9.74498 6.767 8.29298 6.007C7.95498 5.805 7.52398 5.598 7.43198 5.177C7.39498 4.813 7.77998 4.61 8.05498 4.469Z" fill="#FFD83D" />
    <path d="M4.52003 8.00918C4.85903 7.08918 5.41503 6.23518 6.17003 5.60218C6.36203 7.18118 7.03403 8.70718 8.14403 9.85518C9.47504 11.2382 11.371 12.0872 13.3 12.0552C14.066 12.0792 14.815 11.9022 15.562 11.7592C14.827 14.4152 11.916 16.1782 9.21904 15.7542C7.59103 15.5462 6.08803 14.5822 5.18103 13.2212C4.15803 11.7172 3.90003 9.72018 4.52003 8.00918Z" fill="#FFD83D" />
    <path d="M12.8849 7.7038C13.8439 8.0028 14.8009 8.3308 15.6739 8.8368L15.7329 8.8678C15.8139 9.4768 15.8729 10.0978 15.7649 10.7078C15.3259 10.5218 14.9699 10.1948 14.5979 9.9058C13.8819 9.3098 13.1509 8.6278 12.8849 7.7038Z" fill="#FF6F03" />
</svg>
    