<svg viewBox="0 0 18 17" fill="none" xmlns="http://www.w3.org/2000/svg">
    <path d="M16.5 4H1.5V2.125H15.25V0.875H1.5C1.16848 0.875 0.850537 1.0067 0.616116 1.24112C0.381696 1.47554 0.25 1.79348 0.25 2.125V15.25C0.25 15.5815 0.381696 15.8995 0.616116 16.1339C0.850537 16.3683 1.16848 16.5 1.5 16.5H16.5C16.8315 16.5 17.1495 16.3683 17.3839 16.1339C17.6183 15.8995 17.75 15.5815 17.75 15.25V5.25C17.75 4.91848 17.6183 4.60054 17.3839 4.36612C17.1495 4.1317 16.8315 4 16.5 4ZM1.5 15.25V5.25H16.5V7.125H11.5C11.1685 7.125 10.8505 7.2567 10.6161 7.49112C10.3817 7.72554 10.25 8.04348 10.25 8.375V12.125C10.25 12.4565 10.3817 12.7745 10.6161 13.0089C10.8505 13.2433 11.1685 13.375 11.5 13.375H16.5V15.25H1.5ZM16.5 8.375V12.125H11.5V8.375H16.5Z" fill="currentColor" />
</svg>
    